{
  "accessors": [
    {
      "bufferView": 2,
      "componentType": 5126,
      "count": 2604,
      "max": [
        1.403080940246582,
        4.242840766906738,
        0.3345203399658203
      ],
      "min": [
        -1.403080940246582,
        0.0,
        -0.37344565987586975
      ],
      "type": "VEC3"
    },
    {
      "bufferView": 2,
      "byteOffset": 31248,
      "componentType": 5126,
      "count": 2604,
      "max": [
        0.9999618530273438,
        0.9921303987503052,
        0.9982492327690125
      ],
      "min": [
        -0.9999618530273438,
        -0.9999939799308777,
        -0.9999956488609314
      ],
      "type": "VEC3"
    },
    {
      "bufferView": 1,
      "componentType": 5126,
      "count": 2604,
      "max": [
        0.9855062961578369,
        0.9927492737770081
      ],
      "min": [
        0.007250547409057617,
        0.007250547409057617
      ],
      "type": "VEC2"
    },
    {
      "bufferView": 0,
      "componentType": 5125,
      "count": 4002,
      "type": "SCALAR"
    },
    {
      "bufferView": 2,
      "byteOffset": 62496,
      "componentType": 5126,
      "count": 2482,
      "max": [
        1.591785192489624,
        4.801016330718994,
        0.5419469475746155
      ],
      "min": [
        -1.591785192489624,
        0.0008404797408729792,
        -0.5034955739974976
      ],
      "type": "VEC3"
    },
    {
      "bufferView": 2,
      "byteOffset": 92280,
      "componentType": 5126,
      "count": 2482,
      "max": [
        0.9998581409454346,
        0.997477114200592,
        0.9899335503578186
      ],
      "min": [
        -0.9998581409454346,
        -0.999991774559021,
        -0.9944157600402832
      ],
      "type": "VEC3"
    },
    {
      "bufferView": 1,
      "byteOffset": 20832,
      "componentType": 5126,
      "count": 2482,
      "max": [
        0.9925454258918762,
        0.9913030862808228
      ],
      "min": [
        0.007454633712768555,
        0.007454633712768555
      ],
      "type": "VEC2"
    },
    {
      "bufferView": 0,
      "byteOffset": 16008,
      "componentType": 5125,
      "count": 3666,
      "type": "SCALAR"
    },
    {
      "bufferView": 2,
      "byteOffset": 122064,
      "componentType": 5126,
      "count": 2764,
      "max": [
        1.403080940246582,
        4.242840766906738,
        0.40180251002311707
      ],
      "min": [
        -1.403080940246582,
        -0.02104203589260578,
        -0.37776029109954834
      ],
      "type": "VEC3"
    },
    {
      "bufferView": 2,
      "byteOffset": 155232,
      "componentType": 5126,
      "count": 2764,
      "max": [
        0.9999619722366333,
        0.9989520907402039,
        0.9999009370803833
      ],
      "min": [
        -0.9999619722366333,
        -0.9999772310256958,
        -0.9999908208847046
      ],
      "type": "VEC3"
    },
    {
      "bufferView": 1,
      "byteOffset": 40688,
      "componentType": 5126,
      "count": 2764,
      "max": [
        0.9925926923751831,
        0.9902825355529785
      ],
      "min": [
        0.007407277822494507,
        0.007407188415527344
      ],
      "type": "VEC2"
    },
    {
      "bufferView": 0,
      "byteOffset": 30672,
      "componentType": 5125,
      "count": 4194,
      "type": "SCALAR"
    },
    {
      "bufferView": 2,
      "byteOffset": 188400,
      "componentType": 5126,
      "count": 2780,
      "max": [
        1.403080940246582,
        4.242840766906738,
        0.34040191769599915
      ],
      "min": [
        -1.403080940246582,
        -0.02991369180381298,
        -0.5201056003570557
      ],
      "type": "VEC3"
    },
    {
      "bufferView": 2,
      "byteOffset": 221760,
      "componentType": 5126,
      "count": 2780,
      "max": [
        0.9999619722366333,
        1.0,
        0.9983514547348022
      ],
      "min": [
        -0.9999619722366333,
        -0.9999943971633911,
        -0.9999839067459106
      ],
      "type": "VEC3"
    },
    {
      "bufferView": 1,
      "byteOffset": 62800,
      "componentType": 5126,
      "count": 2780,
      "max": [
        0.9925130605697632,
        0.9921191930770874
      ],
      "min": [
        0.007487043738365173,
        0.007487058639526367
      ],
      "type": "VEC2"
    },
    {
      "bufferView": 0,
      "byteOffset": 47448,
      "componentType": 5125,
      "count": 4236,
      "type": "SCALAR"
    }
  ],
  "asset": {
    "extras": {
      "author": "Erroratten (https://sketchfab.com/erroratten)",
      "license": "CC-BY-4.0 (http://creativecommons.org/licenses/by/4.0/)",
      "source": "https://sketchfab.com/3d-models/low-polygon-characters-pack-4187adfe52824bd5a88ffb356e0b40ef",
      "title": "Low | Polygon | Characters | Pack"
    },
    "generator": "Sketchfab-12.66.0",
    "version": "2.0"
  },
  "bufferViews": [
    {
      "buffer": 0,
      "byteLength": 64392,
      "name": "floatBufferViews",
      "target": 34963
    },
    {
      "buffer": 0,
      "byteLength": 85040,
      "byteOffset": 64392,
      "byteStride": 8,
      "name": "floatBufferViews",
      "target": 34962
    },
    {
      "buffer": 0,
      "byteLength": 255120,
      "byteOffset": 149432,
      "byteStride": 12,
      "name": "floatBufferViews",
      "target": 34962
    }
  ],
  "buffers": [
    {
      "byteLength": 404552,
      "uri": "scene.bin"
    }
  ],
  "images": [
    {
      "uri": "textures/barbar_baseColor.png"
    },
    {
      "uri": "textures/barbar_metallicRoughness.png"
    },
    {
      "uri": "textures/gigante_baseColor.png"
    },
    {
      "uri": "textures/gigante_metallicRoughness.png"
    },
    {
      "uri": "textures/grenadier_baseColor.png"
    },
    {
      "uri": "textures/grenadier_metallicRoughness.png"
    },
    {
      "uri": "textures/luck_baseColor.png"
    },
    {
      "uri": "textures/luck_metallicRoughness.png"
    }
  ],
  "materials": [
    {
      "doubleSided": true,
      "name": "barbar",
      "occlusionTexture": {
        "index": 1
      },
      "pbrMetallicRoughness": {
        "baseColorTexture": {
          "index": 0
        },
        "metallicFactor": 0.0,
        "metallicRoughnessTexture": {
          "index": 1
        },
        "roughnessFactor": 0.804545
      }
    },
    {
      "doubleSided": true,
      "name": "gigante",
      "occlusionTexture": {
        "index": 3
      },
      "pbrMetallicRoughness": {
        "baseColorTexture": {
          "index": 2
        },
        "metallicFactor": 0.0,
        "metallicRoughnessTexture": {
          "index": 3
        },
        "roughnessFactor": 0.813636
      }
    },
    {
      "doubleSided": true,
      "name": "grenadier",
      "occlusionTexture": {
        "index": 5
      },
      "pbrMetallicRoughness": {
        "baseColorTexture": {
          "index": 4
        },
        "metallicFactor": 0.0,
        "metallicRoughnessTexture": {
          "index": 5
        },
        "roughnessFactor": 0.759091
      }
    },
    {
      "doubleSided": true,
      "name": "luck",
      "occlusionTexture": {
        "index": 7
      },
      "pbrMetallicRoughness": {
        "baseColorTexture": {
          "index": 6
        },
        "metallicFactor": 0.0,
        "metallicRoughnessTexture": {
          "index": 7
        },
        "roughnessFactor": 0.886364
      }
    }
  ],
  "meshes": [
    {
      "name": "Object_0",
      "primitives": [
        {
          "attributes": {
            "NORMAL": 1,
            "POSITION": 0,
            "TEXCOORD_0": 2
          },
          "indices": 3,
          "material": 0,
          "mode": 4
        }
      ]
    },
    {
      "name": "Object_1",
      "primitives": [
        {
          "attributes": {
            "NORMAL": 5,
            "POSITION": 4,
            "TEXCOORD_0": 6
          },
          "indices": 7,
          "material": 1,
          "mode": 4
        }
      ]
    },
    {
      "name": "Object_2",
      "primitives": [
        {
          "attributes": {
            "NORMAL": 9,
            "POSITION": 8,
            "TEXCOORD_0": 10
          },
          "indices": 11,
          "material": 2,
          "mode": 4
        }
      ]
    },
    {
      "name": "Object_3",
      "primitives": [
        {
          "attributes": {
            "NORMAL": 13,
            "POSITION": 12,
            "TEXCOORD_0": 14
          },
          "indices": 15,
          "material": 3,
          "mode": 4
        }
      ]
    }
  ],
  "nodes": [
    {
      "children": [
        1
      ],
      "matrix": [
        0.45675909519195557,
        0.0,
        0.0,
        0.0,
        0.0,
        1.0142089283781254e-16,
        -0.45675909519195557,
        0.0,
        0.0,
        0.45675909519195557,
        1.0142089283781254e-16,
        0.0,
        0.0,
        0.0,
        0.0,
        1.0
      ],
      "name": "Sketchfab_model"
    },
    {
      "children": [
        2
      ],
      "name": "root"
    },
    {
      "children": [
        3,
        5,
        7,
        9
      ],
      "matrix": [
        1.0,
        0.0,
        0.0,
        0.0,
        0.0,
        2.220446049250313e-16,
        1.0,
        0.0,
        0.0,
        -1.0,
        2.220446049250313e-16,
        0.0,
        0.0,
        0.0,
        0.0,
        1.0
      ],
      "name": "GLTF_SceneRootNode"
    },
    {
      "children": [
        4
      ],
      "name": "Barbar_0"
    },
    {
      "mesh": 0,
      "name": "Object_4"
    },
    {
      "children": [
        6
      ],
      "matrix": [
        1.0,
        0.0,
        0.0,
        0.0,
        0.0,
        1.0,
        0.0,
        0.0,
        0.0,
        0.0,
        1.0,
        0.0,
        6.0,
        0.0,
        2.0,
        1.0
      ],
      "name": "Gigante_1"
    },
    {
      "mesh": 1,
      "name": "Object_6"
    },
    {
      "children": [
        8
      ],
      "matrix": [
        1.0,
        0.0,
        0.0,
        0.0,
        0.0,
        1.0,
        0.0,
        0.0,
        0.0,
        0.0,
        1.0,
        0.0,
        -3.0,
        0.0,
        -1.0,
        1.0
      ],
      "name": "Grenadier_2"
    },
    {
      "mesh": 2,
      "name": "Object_8"
    },
    {
      "children": [
        10
      ],
      "matrix": [
        1.0,
        0.0,
        0.0,
        0.0,
        0.0,
        1.0,
        0.0,
        0.0,
        0.0,
        0.0,
        1.0,
        0.0,
        3.0,
        0.0,
        1.0,
        1.0
      ],
      "name": "Cube_3"
    },
    {
      "mesh": 3,
      "name": "Object_10"
    }
  ],
  "samplers": [
    {
      "magFilter": 9729,
      "minFilter": 9987,
      "wrapS": 10497,
      "wrapT": 10497
    }
  ],
  "scene": 0,
  "scenes": [
    {
      "name": "Sketchfab_Scene",
      "nodes": [
        0
      ]
    }
  ],
  "textures": [
    {
      "sampler": 0,
      "source": 0
    },
    {
      "sampler": 0,
      "source": 1
    },
    {
      "sampler": 0,
      "source": 2
    },
    {
      "sampler": 0,
      "source": 3
    },
    {
      "sampler": 0,
      "source": 4
    },
    {
      "sampler": 0,
      "source": 5
    },
    {
      "sampler": 0,
      "source": 6
    },
    {
      "sampler": 0,
      "source": 7
    }
  ]
}
